%TF.GenerationSoftware,KiCad,Pcbnew,9.0.7*%
%TF.CreationDate,2026-03-03T20:20:13+11:00*%
%TF.ProjectId,CodePad,436f6465-5061-4642-9e6b-696361645f70,rev?*%
%TF.SameCoordinates,Original*%
%TF.FileFunction,Copper,L1,Top*%
%TF.FilePolarity,Positive*%
%FSLAX46Y46*%
G04 Gerber Fmt 4.6, Leading zero omitted, Abs format (unit mm)*
G04 Created by KiCad (PCBNEW 9.0.7) date 2026-03-03 20:20:13*
%MOMM*%
%LPD*%
G01*
G04 APERTURE LIST*
G04 Aperture macros list*
%AMRoundRect*
0 Rectangle with rounded corners*
0 $1 Rounding radius*
0 $2 $3 $4 $5 $6 $7 $8 $9 X,Y pos of 4 corners*
0 Add a 4 corners polygon primitive as box body*
4,1,4,$2,$3,$4,$5,$6,$7,$8,$9,$2,$3,0*
0 Add four circle primitives for the rounded corners*
1,1,$1+$1,$2,$3*
1,1,$1+$1,$4,$5*
1,1,$1+$1,$6,$7*
1,1,$1+$1,$8,$9*
0 Add four rect primitives between the rounded corners*
20,1,$1+$1,$2,$3,$4,$5,0*
20,1,$1+$1,$4,$5,$6,$7,0*
20,1,$1+$1,$6,$7,$8,$9,0*
20,1,$1+$1,$8,$9,$2,$3,0*%
G04 Aperture macros list end*
%TA.AperFunction,SMDPad,CuDef*%
%ADD10RoundRect,0.200000X-0.200000X-0.275000X0.200000X-0.275000X0.200000X0.275000X-0.200000X0.275000X0*%
%TD*%
%TA.AperFunction,ComponentPad*%
%ADD11C,2.200000*%
%TD*%
%TA.AperFunction,ComponentPad*%
%ADD12O,3.700000X1.700000*%
%TD*%
%TA.AperFunction,ComponentPad*%
%ADD13O,3.600000X1.700000*%
%TD*%
%TA.AperFunction,ComponentPad*%
%ADD14R,3.500000X1.700000*%
%TD*%
%TA.AperFunction,ViaPad*%
%ADD15C,0.600000*%
%TD*%
%TA.AperFunction,Conductor*%
%ADD16C,0.200000*%
%TD*%
G04 APERTURE END LIST*
D10*
%TO.P,R1,1*%
%TO.N,Net-(U1-PA4_A1_D1)*%
X24850000Y-79500000D03*
%TO.P,R1,2*%
%TO.N,Net-(D4-DIN)*%
X26500000Y-79500000D03*
%TD*%
D11*
%TO.P,SW3,2,2*%
%TO.N,GND*%
X30485000Y-65185000D03*
%TO.P,SW3,1,1*%
%TO.N,Net-(U1-PA7_A8_D8_SCK)*%
X36835000Y-62645000D03*
%TD*%
%TO.P,SW2,2,2*%
%TO.N,GND*%
X30485000Y-50095000D03*
%TO.P,SW2,1,1*%
%TO.N,Net-(U1-PA5_A9_D9_MISO)*%
X36835000Y-47555000D03*
%TD*%
%TO.P,SW1,2,2*%
%TO.N,GND*%
X30485000Y-35005000D03*
%TO.P,SW1,1,1*%
%TO.N,Net-(U1-PA6_A10_D10_MOSI)*%
X36835000Y-32465000D03*
%TD*%
D12*
%TO.P,U1,14,5V*%
%TO.N,Net-(D1-VDD)*%
X25500000Y-30000000D03*
%TO.P,U1,13,GND*%
%TO.N,GND*%
X25500000Y-32540000D03*
%TO.P,U1,12,3V3*%
%TO.N,unconnected-(U1-3V3-Pad12)*%
X25500000Y-35080000D03*
%TO.P,U1,11,PA6_A10_D10_MOSI*%
%TO.N,Net-(U1-PA6_A10_D10_MOSI)*%
X25500000Y-37620000D03*
D13*
%TO.P,U1,10,PA5_A9_D9_MISO*%
%TO.N,Net-(U1-PA5_A9_D9_MISO)*%
X25500000Y-40160000D03*
%TO.P,U1,9,PA7_A8_D8_SCK*%
%TO.N,Net-(U1-PA7_A8_D8_SCK)*%
X25500000Y-42700000D03*
%TO.P,U1,8,PB09_A7_D7_RX*%
%TO.N,unconnected-(U1-PB09_A7_D7_RX-Pad8)*%
X25500000Y-45240000D03*
%TO.P,U1,7,PB08_A6_D6_TX*%
%TO.N,unconnected-(U1-PB08_A6_D6_TX-Pad7)*%
X42750000Y-45240000D03*
%TO.P,U1,6,PA9_A5_D5_SCL*%
%TO.N,unconnected-(U1-PA9_A5_D5_SCL-Pad6)*%
X42750000Y-42700000D03*
%TO.P,U1,5,PA8_A4_D4_SDA*%
%TO.N,unconnected-(U1-PA8_A4_D4_SDA-Pad5)*%
X42750000Y-40160000D03*
%TO.P,U1,4,PA11_A3_D3*%
%TO.N,unconnected-(U1-PA11_A3_D3-Pad4)*%
X42750000Y-37620000D03*
%TO.P,U1,3,PA10_A2_D2*%
%TO.N,unconnected-(U1-PA10_A2_D2-Pad3)*%
X42750000Y-35080000D03*
%TO.P,U1,2,PA4_A1_D1*%
%TO.N,Net-(U1-PA4_A1_D1)*%
X42750000Y-32540000D03*
D14*
%TO.P,U1,1,PA02_A0_D0*%
%TO.N,unconnected-(U1-PA02_A0_D0-Pad1)*%
X42750000Y-30000000D03*
%TD*%
D15*
%TO.N,Net-(D3-DOUT)*%
X29500000Y-92500000D03*
X29500000Y-98000000D03*
%TO.N,Net-(D2-DOUT)*%
X34500000Y-98000000D03*
X34500000Y-92500000D03*
%TO.N,Net-(D1-DOUT)*%
X39500000Y-98000000D03*
X40000000Y-92500000D03*
%TO.N,Net-(D1-DIN)*%
X23500000Y-83000000D03*
X43000000Y-101000000D03*
%TO.N,Net-(D6-DOUT)*%
X29500000Y-89000000D03*
X29500000Y-82000000D03*
%TO.N,Net-(D5-DOUT)*%
X34500000Y-82000000D03*
X34500000Y-89000000D03*
%TO.N,Net-(D4-DOUT)*%
X39500000Y-89000000D03*
X39500000Y-82000000D03*
%TO.N,Net-(D4-DIN)*%
X41000000Y-79500000D03*
X41000000Y-79500000D03*
%TD*%
D16*
%TO.N,Net-(D3-DOUT)*%
X29500000Y-92500000D02*
X29500000Y-98000000D01*
%TO.N,Net-(D2-DOUT)*%
X34500000Y-92500000D02*
X34500000Y-98000000D01*
%TO.N,Net-(D1-DOUT)*%
X39500000Y-94000000D02*
X39500000Y-98000000D01*
X40000000Y-92500000D02*
X39500000Y-93000000D01*
X39500000Y-93000000D02*
X39500000Y-94000000D01*
%TO.N,Net-(D1-DIN)*%
X23500000Y-83000000D02*
X23500000Y-99000000D01*
X23500000Y-99000000D02*
X25500000Y-101000000D01*
X25500000Y-101000000D02*
X43000000Y-101000000D01*
%TO.N,Net-(D6-DOUT)*%
X29500000Y-82000000D02*
X29500000Y-89000000D01*
%TO.N,Net-(D5-DOUT)*%
X34500000Y-82000000D02*
X34500000Y-89000000D01*
X34500000Y-89000000D02*
X34505757Y-88994243D01*
%TO.N,Net-(D4-DOUT)*%
X39500000Y-82000000D02*
X39500000Y-89000000D01*
%TO.N,Net-(D4-DIN)*%
X26500000Y-79500000D02*
X41000000Y-79500000D01*
%TO.N,Net-(U1-PA4_A1_D1)*%
X41750000Y-32540000D02*
X41750000Y-33471530D01*
X41750000Y-33471530D02*
X31944000Y-43277530D01*
X31944000Y-43277530D02*
X31944000Y-72406000D01*
X31944000Y-72406000D02*
X24850000Y-79500000D01*
%TO.N,GND*%
X30485000Y-35005000D02*
X30485000Y-65185000D01*
%TD*%
M02*
