M48
; DRILL file {KiCad 9.0.7} date 2026-03-03T20:20:35+1100
; FORMAT={-:-/ absolute / metric / decimal}
; #@! TF.CreationDate,2026-03-03T20:20:35+11:00
; #@! TF.GenerationSoftware,Kicad,Pcbnew,9.0.7
; #@! TF.FileFunction,Plated,1,2,PTH
FMAT,2
METRIC
; #@! TA.AperFunction,Plated,PTH,ViaDrill
T1C0.300
; #@! TA.AperFunction,Plated,PTH,ComponentDrill
T2C1.000
; #@! TA.AperFunction,Plated,PTH,ComponentDrill
T3C1.500
%
G90
G05
T1
X23.5Y-83.0
X29.5Y-82.0
X29.5Y-89.0
X29.5Y-92.5
X29.5Y-98.0
X34.5Y-82.0
X34.5Y-89.0
X34.5Y-92.5
X34.5Y-98.0
X39.5Y-82.0
X39.5Y-89.0
X39.5Y-98.0
X40.0Y-92.5
X41.0Y-79.5
X41.0Y-79.5
X43.0Y-101.0
T2
X26.5Y-30.0
X26.5Y-32.54
X26.5Y-35.08
X26.5Y-37.62
X26.5Y-40.16
X26.5Y-42.7
X26.5Y-45.24
X41.75Y-30.0
X41.75Y-32.54
X41.75Y-35.08
X41.75Y-37.62
X41.75Y-40.16
X41.75Y-42.7
X41.75Y-45.24
T3
X30.485Y-35.005
X30.485Y-50.095
X30.485Y-65.185
X36.835Y-32.465
X36.835Y-47.555
X36.835Y-62.645
M30
