%TF.GenerationSoftware,KiCad,Pcbnew,9.0.7*%
%TF.CreationDate,2026-03-03T20:21:56+11:00*%
%TF.ProjectId,CodePad,436f6465-5061-4642-9e6b-696361645f70,rev?*%
%TF.SameCoordinates,Original*%
%TF.FileFunction,Copper,L1,Top*%
%TF.FilePolarity,Positive*%
%FSLAX46Y46*%
G04 Gerber Fmt 4.6, Leading zero omitted, Abs format (unit mm)*
G04 Created by KiCad (PCBNEW 9.0.7) date 2026-03-03 20:21:56*
%MOMM*%
%LPD*%
G01*
G04 APERTURE LIST*
G04 Aperture macros list*
%AMRoundRect*
0 Rectangle with rounded corners*
0 $1 Rounding radius*
0 $2 $3 $4 $5 $6 $7 $8 $9 X,Y pos of 4 corners*
0 Add a 4 corners polygon primitive as box body*
4,1,4,$2,$3,$4,$5,$6,$7,$8,$9,$2,$3,0*
0 Add four circle primitives for the rounded corners*
1,1,$1+$1,$2,$3*
1,1,$1+$1,$4,$5*
1,1,$1+$1,$6,$7*
1,1,$1+$1,$8,$9*
0 Add four rect primitives between the rounded corners*
20,1,$1+$1,$2,$3,$4,$5,0*
20,1,$1+$1,$4,$5,$6,$7,0*
20,1,$1+$1,$6,$7,$8,$9,0*
20,1,$1+$1,$8,$9,$2,$3,0*%
G04 Aperture macros list end*
%TA.AperFunction,SMDPad,CuDef*%
%ADD10RoundRect,0.200000X-0.200000X-0.275000X0.200000X-0.275000X0.200000X0.275000X-0.200000X0.275000X0*%
%TD*%
%TA.AperFunction,ComponentPad*%
%ADD11C,2.200000*%
%TD*%
%TA.AperFunction,ComponentPad*%
%ADD12O,3.700000X1.700000*%
%TD*%
%TA.AperFunction,ComponentPad*%
%ADD13O,3.600000X1.700000*%
%TD*%
%TA.AperFunction,ComponentPad*%
%ADD14R,3.500000X1.700000*%
%TD*%
%TA.AperFunction,ViaPad*%
%ADD15C,0.600000*%
%TD*%
%TA.AperFunction,Conductor*%
%ADD16C,0.200000*%
%TD*%
%TA.AperFunction,Profile*%
%ADD17C,0.050000*%
%TD*%
%TA.AperFunction,Profile*%
%ADD18C,0.100000*%
%TD*%
G04 APERTURE END LIST*
D10*
%TO.P,R1,1*%
%TO.N,Net-(U1-PA4_A1_D1)*%
X24850000Y-79500000D03*
%TO.P,R1,2*%
%TO.N,Net-(D4-DIN)*%
X26500000Y-79500000D03*
%TD*%
D11*
%TO.P,SW3,2,2*%
%TO.N,GND*%
X30485000Y-65185000D03*
%TO.P,SW3,1,1*%
%TO.N,Net-(U1-PA7_A8_D8_SCK)*%
X36835000Y-62645000D03*
%TD*%
%TO.P,SW2,2,2*%
%TO.N,GND*%
X30485000Y-50095000D03*
%TO.P,SW2,1,1*%
%TO.N,Net-(U1-PA5_A9_D9_MISO)*%
X36835000Y-47555000D03*
%TD*%
%TO.P,SW1,2,2*%
%TO.N,GND*%
X30485000Y-35005000D03*
%TO.P,SW1,1,1*%
%TO.N,Net-(U1-PA6_A10_D10_MOSI)*%
X36835000Y-32465000D03*
%TD*%
D12*
%TO.P,U1,14,5V*%
%TO.N,Net-(D1-VDD)*%
X25500000Y-30000000D03*
%TO.P,U1,13,GND*%
%TO.N,GND*%
X25500000Y-32540000D03*
%TO.P,U1,12,3V3*%
%TO.N,unconnected-(U1-3V3-Pad12)*%
X25500000Y-35080000D03*
%TO.P,U1,11,PA6_A10_D10_MOSI*%
%TO.N,Net-(U1-PA6_A10_D10_MOSI)*%
X25500000Y-37620000D03*
D13*
%TO.P,U1,10,PA5_A9_D9_MISO*%
%TO.N,Net-(U1-PA5_A9_D9_MISO)*%
X25500000Y-40160000D03*
%TO.P,U1,9,PA7_A8_D8_SCK*%
%TO.N,Net-(U1-PA7_A8_D8_SCK)*%
X25500000Y-42700000D03*
%TO.P,U1,8,PB09_A7_D7_RX*%
%TO.N,unconnected-(U1-PB09_A7_D7_RX-Pad8)*%
X25500000Y-45240000D03*
%TO.P,U1,7,PB08_A6_D6_TX*%
%TO.N,unconnected-(U1-PB08_A6_D6_TX-Pad7)*%
X42750000Y-45240000D03*
%TO.P,U1,6,PA9_A5_D5_SCL*%
%TO.N,unconnected-(U1-PA9_A5_D5_SCL-Pad6)*%
X42750000Y-42700000D03*
%TO.P,U1,5,PA8_A4_D4_SDA*%
%TO.N,unconnected-(U1-PA8_A4_D4_SDA-Pad5)*%
X42750000Y-40160000D03*
%TO.P,U1,4,PA11_A3_D3*%
%TO.N,unconnected-(U1-PA11_A3_D3-Pad4)*%
X42750000Y-37620000D03*
%TO.P,U1,3,PA10_A2_D2*%
%TO.N,unconnected-(U1-PA10_A2_D2-Pad3)*%
X42750000Y-35080000D03*
%TO.P,U1,2,PA4_A1_D1*%
%TO.N,Net-(U1-PA4_A1_D1)*%
X42750000Y-32540000D03*
D14*
%TO.P,U1,1,PA02_A0_D0*%
%TO.N,unconnected-(U1-PA02_A0_D0-Pad1)*%
X42750000Y-30000000D03*
%TD*%
D15*
%TO.N,Net-(D3-DOUT)*%
X29500000Y-92500000D03*
X29500000Y-98000000D03*
%TO.N,Net-(D2-DOUT)*%
X34500000Y-98000000D03*
X34500000Y-92500000D03*
%TO.N,Net-(D1-DOUT)*%
X39500000Y-98000000D03*
X40000000Y-92500000D03*
%TO.N,Net-(D1-DIN)*%
X23500000Y-83000000D03*
X43000000Y-101000000D03*
%TO.N,Net-(D6-DOUT)*%
X29500000Y-89000000D03*
X29500000Y-82000000D03*
%TO.N,Net-(D5-DOUT)*%
X34500000Y-82000000D03*
X34500000Y-89000000D03*
%TO.N,Net-(D4-DOUT)*%
X39500000Y-89000000D03*
X39500000Y-82000000D03*
%TO.N,Net-(D4-DIN)*%
X41000000Y-79500000D03*
X41000000Y-79500000D03*
%TD*%
D16*
%TO.N,Net-(D3-DOUT)*%
X29500000Y-92500000D02*
X29500000Y-98000000D01*
%TO.N,Net-(D2-DOUT)*%
X34500000Y-92500000D02*
X34500000Y-98000000D01*
%TO.N,Net-(D1-DOUT)*%
X39500000Y-94000000D02*
X39500000Y-98000000D01*
X40000000Y-92500000D02*
X39500000Y-93000000D01*
X39500000Y-93000000D02*
X39500000Y-94000000D01*
%TO.N,Net-(D1-DIN)*%
X23500000Y-83000000D02*
X23500000Y-99000000D01*
X23500000Y-99000000D02*
X25500000Y-101000000D01*
X25500000Y-101000000D02*
X43000000Y-101000000D01*
%TO.N,Net-(D6-DOUT)*%
X29500000Y-82000000D02*
X29500000Y-89000000D01*
%TO.N,Net-(D5-DOUT)*%
X34500000Y-82000000D02*
X34500000Y-89000000D01*
X34500000Y-89000000D02*
X34505757Y-88994243D01*
%TO.N,Net-(D4-DOUT)*%
X39500000Y-82000000D02*
X39500000Y-89000000D01*
%TO.N,Net-(D4-DIN)*%
X26500000Y-79500000D02*
X41000000Y-79500000D01*
%TO.N,Net-(U1-PA4_A1_D1)*%
X41750000Y-32540000D02*
X41750000Y-33471530D01*
X41750000Y-33471530D02*
X31944000Y-43277530D01*
X31944000Y-43277530D02*
X31944000Y-72406000D01*
X31944000Y-72406000D02*
X24850000Y-79500000D01*
%TO.N,GND*%
X30485000Y-35005000D02*
X30485000Y-65185000D01*
%TD*%
D17*
X22000000Y-24000000D02*
X46500000Y-24000000D01*
X46500000Y-102500000D01*
X22000000Y-102500000D01*
X22000000Y-24000000D01*
D18*
%TO.C,D8*%
X26350000Y-93700001D02*
X27755684Y-93700001D01*
X28552841Y-94605548D02*
X28552841Y-96194453D01*
X25552842Y-96194452D02*
X25552842Y-94605548D01*
X27755684Y-97099999D02*
X26350000Y-97099999D01*
X27972562Y-93650516D02*
G75*
G02*
X27755684Y-93700001I-216876J450505D01*
G01*
X27972562Y-93650516D02*
G75*
G02*
X28621141Y-94353289I216878J-450515D01*
G01*
X26349999Y-93700001D02*
G75*
G02*
X26133122Y-93650516I-1J499990D01*
G01*
X25484545Y-94353289D02*
G75*
G02*
X26133122Y-93650516I431700J252258D01*
G01*
X25484543Y-94353290D02*
G75*
G02*
X25552842Y-94605548I-431710J-252261D01*
G01*
X28552842Y-94605547D02*
G75*
G02*
X28621141Y-94353289I500009J-3D01*
G01*
X25552842Y-96194452D02*
G75*
G02*
X25484543Y-96446711I-500012J3D01*
G01*
X28621140Y-96446711D02*
G75*
G02*
X28552840Y-96194453I431710J252262D01*
G01*
X28621140Y-96446711D02*
G75*
G02*
X27972562Y-97149483I-431700J-252258D01*
G01*
X27755685Y-97099999D02*
G75*
G02*
X27972565Y-97149478I15J-500000D01*
G01*
X26133123Y-97149484D02*
G75*
G02*
X25484543Y-96446711I-216880J450514D01*
G01*
X26133122Y-97149484D02*
G75*
G02*
X26350000Y-97099999I216878J-450515D01*
G01*
%TO.C,D3*%
X31400000Y-93700001D02*
X32805684Y-93700001D01*
X33602841Y-94605548D02*
X33602841Y-96194453D01*
X30602842Y-96194452D02*
X30602842Y-94605548D01*
X32805684Y-97099999D02*
X31400000Y-97099999D01*
X33022562Y-93650516D02*
G75*
G02*
X32805684Y-93700001I-216876J450505D01*
G01*
X33022562Y-93650516D02*
G75*
G02*
X33671141Y-94353289I216878J-450515D01*
G01*
X31399999Y-93700001D02*
G75*
G02*
X31183122Y-93650516I-1J499990D01*
G01*
X30534545Y-94353289D02*
G75*
G02*
X31183122Y-93650516I431700J252258D01*
G01*
X30534543Y-94353290D02*
G75*
G02*
X30602842Y-94605548I-431710J-252261D01*
G01*
X33602842Y-94605547D02*
G75*
G02*
X33671141Y-94353289I500009J-3D01*
G01*
X30602842Y-96194452D02*
G75*
G02*
X30534543Y-96446711I-500012J3D01*
G01*
X33671140Y-96446711D02*
G75*
G02*
X33602840Y-96194453I431710J252262D01*
G01*
X33671140Y-96446711D02*
G75*
G02*
X33022562Y-97149483I-431700J-252258D01*
G01*
X32805685Y-97099999D02*
G75*
G02*
X33022565Y-97149478I15J-500000D01*
G01*
X31183123Y-97149484D02*
G75*
G02*
X30534543Y-96446711I-216880J450514D01*
G01*
X31183122Y-97149484D02*
G75*
G02*
X31400000Y-97099999I216878J-450515D01*
G01*
%TO.C,D2*%
X36450000Y-93700001D02*
X37855684Y-93700001D01*
X38652841Y-94605548D02*
X38652841Y-96194453D01*
X35652842Y-96194452D02*
X35652842Y-94605548D01*
X37855684Y-97099999D02*
X36450000Y-97099999D01*
X38072562Y-93650516D02*
G75*
G02*
X37855684Y-93700001I-216876J450505D01*
G01*
X38072562Y-93650516D02*
G75*
G02*
X38721141Y-94353289I216878J-450515D01*
G01*
X36449999Y-93700001D02*
G75*
G02*
X36233122Y-93650516I-1J499990D01*
G01*
X35584545Y-94353289D02*
G75*
G02*
X36233122Y-93650516I431700J252258D01*
G01*
X35584543Y-94353290D02*
G75*
G02*
X35652842Y-94605548I-431710J-252261D01*
G01*
X38652842Y-94605547D02*
G75*
G02*
X38721141Y-94353289I500009J-3D01*
G01*
X35652842Y-96194452D02*
G75*
G02*
X35584543Y-96446711I-500012J3D01*
G01*
X38721140Y-96446711D02*
G75*
G02*
X38652840Y-96194453I431710J252262D01*
G01*
X38721140Y-96446711D02*
G75*
G02*
X38072562Y-97149483I-431700J-252258D01*
G01*
X37855685Y-97099999D02*
G75*
G02*
X38072565Y-97149478I15J-500000D01*
G01*
X36233123Y-97149484D02*
G75*
G02*
X35584543Y-96446711I-216880J450514D01*
G01*
X36233122Y-97149484D02*
G75*
G02*
X36450000Y-97099999I216878J-450515D01*
G01*
%TO.C,D1*%
X41500000Y-93700001D02*
X42905684Y-93700001D01*
X43702841Y-94605548D02*
X43702841Y-96194453D01*
X40702842Y-96194452D02*
X40702842Y-94605548D01*
X42905684Y-97099999D02*
X41500000Y-97099999D01*
X43122562Y-93650516D02*
G75*
G02*
X42905684Y-93700001I-216876J450505D01*
G01*
X43122562Y-93650516D02*
G75*
G02*
X43771141Y-94353289I216878J-450515D01*
G01*
X41499999Y-93700001D02*
G75*
G02*
X41283122Y-93650516I-1J499990D01*
G01*
X40634545Y-94353289D02*
G75*
G02*
X41283122Y-93650516I431700J252258D01*
G01*
X40634543Y-94353290D02*
G75*
G02*
X40702842Y-94605548I-431710J-252261D01*
G01*
X43702842Y-94605547D02*
G75*
G02*
X43771141Y-94353289I500009J-3D01*
G01*
X40702842Y-96194452D02*
G75*
G02*
X40634543Y-96446711I-500012J3D01*
G01*
X43771140Y-96446711D02*
G75*
G02*
X43702840Y-96194453I431710J252262D01*
G01*
X43771140Y-96446711D02*
G75*
G02*
X43122562Y-97149483I-431700J-252258D01*
G01*
X42905685Y-97099999D02*
G75*
G02*
X43122565Y-97149478I15J-500000D01*
G01*
X41283123Y-97149484D02*
G75*
G02*
X40634543Y-96446711I-216880J450514D01*
G01*
X41283122Y-97149484D02*
G75*
G02*
X41500000Y-97099999I216878J-450515D01*
G01*
%TO.C,D7*%
X26350000Y-84700001D02*
X27755684Y-84700001D01*
X28552841Y-85605548D02*
X28552841Y-87194453D01*
X25552842Y-87194452D02*
X25552842Y-85605548D01*
X27755684Y-88099999D02*
X26350000Y-88099999D01*
X27972562Y-84650516D02*
G75*
G02*
X27755684Y-84700001I-216876J450505D01*
G01*
X27972562Y-84650516D02*
G75*
G02*
X28621141Y-85353289I216878J-450515D01*
G01*
X26349999Y-84700001D02*
G75*
G02*
X26133122Y-84650516I-1J499990D01*
G01*
X25484545Y-85353289D02*
G75*
G02*
X26133122Y-84650516I431700J252258D01*
G01*
X25484543Y-85353290D02*
G75*
G02*
X25552842Y-85605548I-431710J-252261D01*
G01*
X28552842Y-85605547D02*
G75*
G02*
X28621141Y-85353289I500009J-3D01*
G01*
X25552842Y-87194452D02*
G75*
G02*
X25484543Y-87446711I-500012J3D01*
G01*
X28621140Y-87446711D02*
G75*
G02*
X28552840Y-87194453I431710J252262D01*
G01*
X28621140Y-87446711D02*
G75*
G02*
X27972562Y-88149483I-431700J-252258D01*
G01*
X27755685Y-88099999D02*
G75*
G02*
X27972565Y-88149478I15J-500000D01*
G01*
X26133123Y-88149484D02*
G75*
G02*
X25484543Y-87446711I-216880J450514D01*
G01*
X26133122Y-88149484D02*
G75*
G02*
X26350000Y-88099999I216878J-450515D01*
G01*
%TO.C,D6*%
X31400000Y-84700001D02*
X32805684Y-84700001D01*
X33602841Y-85605548D02*
X33602841Y-87194453D01*
X30602842Y-87194452D02*
X30602842Y-85605548D01*
X32805684Y-88099999D02*
X31400000Y-88099999D01*
X33022562Y-84650516D02*
G75*
G02*
X32805684Y-84700001I-216876J450505D01*
G01*
X33022562Y-84650516D02*
G75*
G02*
X33671141Y-85353289I216878J-450515D01*
G01*
X31399999Y-84700001D02*
G75*
G02*
X31183122Y-84650516I-1J499990D01*
G01*
X30534545Y-85353289D02*
G75*
G02*
X31183122Y-84650516I431700J252258D01*
G01*
X30534543Y-85353290D02*
G75*
G02*
X30602842Y-85605548I-431710J-252261D01*
G01*
X33602842Y-85605547D02*
G75*
G02*
X33671141Y-85353289I500009J-3D01*
G01*
X30602842Y-87194452D02*
G75*
G02*
X30534543Y-87446711I-500012J3D01*
G01*
X33671140Y-87446711D02*
G75*
G02*
X33602840Y-87194453I431710J252262D01*
G01*
X33671140Y-87446711D02*
G75*
G02*
X33022562Y-88149483I-431700J-252258D01*
G01*
X32805685Y-88099999D02*
G75*
G02*
X33022565Y-88149478I15J-500000D01*
G01*
X31183123Y-88149484D02*
G75*
G02*
X30534543Y-87446711I-216880J450514D01*
G01*
X31183122Y-88149484D02*
G75*
G02*
X31400000Y-88099999I216878J-450515D01*
G01*
%TO.C,D5*%
X36450000Y-84700001D02*
X37855684Y-84700001D01*
X38652841Y-85605548D02*
X38652841Y-87194453D01*
X35652842Y-87194452D02*
X35652842Y-85605548D01*
X37855684Y-88099999D02*
X36450000Y-88099999D01*
X38072562Y-84650516D02*
G75*
G02*
X37855684Y-84700001I-216876J450505D01*
G01*
X38072562Y-84650516D02*
G75*
G02*
X38721141Y-85353289I216878J-450515D01*
G01*
X36449999Y-84700001D02*
G75*
G02*
X36233122Y-84650516I-1J499990D01*
G01*
X35584545Y-85353289D02*
G75*
G02*
X36233122Y-84650516I431700J252258D01*
G01*
X35584543Y-85353290D02*
G75*
G02*
X35652842Y-85605548I-431710J-252261D01*
G01*
X38652842Y-85605547D02*
G75*
G02*
X38721141Y-85353289I500009J-3D01*
G01*
X35652842Y-87194452D02*
G75*
G02*
X35584543Y-87446711I-500012J3D01*
G01*
X38721140Y-87446711D02*
G75*
G02*
X38652840Y-87194453I431710J252262D01*
G01*
X38721140Y-87446711D02*
G75*
G02*
X38072562Y-88149483I-431700J-252258D01*
G01*
X37855685Y-88099999D02*
G75*
G02*
X38072565Y-88149478I15J-500000D01*
G01*
X36233123Y-88149484D02*
G75*
G02*
X35584543Y-87446711I-216880J450514D01*
G01*
X36233122Y-88149484D02*
G75*
G02*
X36450000Y-88099999I216878J-450515D01*
G01*
%TO.C,D4*%
X41500000Y-84700001D02*
X42905684Y-84700001D01*
X43702841Y-85605548D02*
X43702841Y-87194453D01*
X40702842Y-87194452D02*
X40702842Y-85605548D01*
X42905684Y-88099999D02*
X41500000Y-88099999D01*
X43122562Y-84650516D02*
G75*
G02*
X42905684Y-84700001I-216876J450505D01*
G01*
X43122562Y-84650516D02*
G75*
G02*
X43771141Y-85353289I216878J-450515D01*
G01*
X41499999Y-84700001D02*
G75*
G02*
X41283122Y-84650516I-1J499990D01*
G01*
X40634545Y-85353289D02*
G75*
G02*
X41283122Y-84650516I431700J252258D01*
G01*
X40634543Y-85353290D02*
G75*
G02*
X40702842Y-85605548I-431710J-252261D01*
G01*
X43702842Y-85605547D02*
G75*
G02*
X43771141Y-85353289I500009J-3D01*
G01*
X40702842Y-87194452D02*
G75*
G02*
X40634543Y-87446711I-500012J3D01*
G01*
X43771140Y-87446711D02*
G75*
G02*
X43702840Y-87194453I431710J252262D01*
G01*
X43771140Y-87446711D02*
G75*
G02*
X43122562Y-88149483I-431700J-252258D01*
G01*
X42905685Y-88099999D02*
G75*
G02*
X43122565Y-88149478I15J-500000D01*
G01*
X41283123Y-88149484D02*
G75*
G02*
X40634543Y-87446711I-216880J450514D01*
G01*
X41283122Y-88149484D02*
G75*
G02*
X41500000Y-88099999I216878J-450515D01*
G01*
%TD*%
M02*
